<mxfile host="Electron" agent="Mozilla/5.0 (Macintosh; Intel Mac OS X 10_15_7) AppleWebKit/537.36 (KHTML, like Gecko) draw.io/24.7.17 Chrome/128.0.6613.36 Electron/32.0.1 Safari/537.36" version="24.7.17">
  <diagram name="Sayfa -1" id="jDDf7yI5Ph4p9Fsg3NfB">
    <mxGraphModel dx="1183" dy="864" grid="1" gridSize="10" guides="1" tooltips="1" connect="1" arrows="1" fold="1" page="1" pageScale="1" pageWidth="827" pageHeight="1169" math="0" shadow="0">
      <root>
        <mxCell id="0" />
        <mxCell id="1" parent="0" />
        <mxCell id="Z0DfydjJGIAEFnmEN4nz-1" value=":Player" style="rounded=0;whiteSpace=wrap;html=1;" parent="1" vertex="1">
          <mxGeometry x="80" y="190" width="120" height="60" as="geometry" />
        </mxCell>
        <mxCell id="Z0DfydjJGIAEFnmEN4nz-2" value=":Inventory" style="rounded=0;whiteSpace=wrap;html=1;" parent="1" vertex="1">
          <mxGeometry x="230" y="190" width="120" height="60" as="geometry" />
        </mxCell>
        <mxCell id="Z0DfydjJGIAEFnmEN4nz-3" value=":GameSystem" style="rounded=0;whiteSpace=wrap;html=1;" parent="1" vertex="1">
          <mxGeometry x="380" y="190" width="120" height="60" as="geometry" />
        </mxCell>
        <mxCell id="Z0DfydjJGIAEFnmEN4nz-5" value="" style="endArrow=none;dashed=1;html=1;rounded=0;entryX=0.5;entryY=1;entryDx=0;entryDy=0;" parent="1" source="Z0DfydjJGIAEFnmEN4nz-41" target="Z0DfydjJGIAEFnmEN4nz-1" edge="1">
          <mxGeometry width="50" height="50" relative="1" as="geometry">
            <mxPoint x="140" y="730" as="sourcePoint" />
            <mxPoint x="440" y="360" as="targetPoint" />
          </mxGeometry>
        </mxCell>
        <mxCell id="Z0DfydjJGIAEFnmEN4nz-6" value="" style="endArrow=none;dashed=1;html=1;rounded=0;entryX=0.5;entryY=1;entryDx=0;entryDy=0;" parent="1" edge="1">
          <mxGeometry width="50" height="50" relative="1" as="geometry">
            <mxPoint x="290" y="340" as="sourcePoint" />
            <mxPoint x="289.5" y="250" as="targetPoint" />
          </mxGeometry>
        </mxCell>
        <mxCell id="Z0DfydjJGIAEFnmEN4nz-7" value="" style="endArrow=none;dashed=1;html=1;rounded=0;entryX=0.5;entryY=1;entryDx=0;entryDy=0;" parent="1" source="Z0DfydjJGIAEFnmEN4nz-45" edge="1">
          <mxGeometry width="50" height="50" relative="1" as="geometry">
            <mxPoint x="439.5" y="720" as="sourcePoint" />
            <mxPoint x="439.5" y="240" as="targetPoint" />
          </mxGeometry>
        </mxCell>
        <mxCell id="Z0DfydjJGIAEFnmEN4nz-9" value="" style="endArrow=classic;html=1;rounded=0;" parent="1" edge="1">
          <mxGeometry width="50" height="50" relative="1" as="geometry">
            <mxPoint x="140" y="300" as="sourcePoint" />
            <mxPoint x="285" y="300" as="targetPoint" />
          </mxGeometry>
        </mxCell>
        <mxCell id="Z0DfydjJGIAEFnmEN4nz-10" value="" style="endArrow=classic;html=1;rounded=0;" parent="1" edge="1" target="Z0DfydjJGIAEFnmEN4nz-45">
          <mxGeometry width="50" height="50" relative="1" as="geometry">
            <mxPoint x="295" y="330" as="sourcePoint" />
            <mxPoint x="595" y="330" as="targetPoint" />
          </mxGeometry>
        </mxCell>
        <mxCell id="Z0DfydjJGIAEFnmEN4nz-12" value="" style="endArrow=classic;html=1;rounded=0;" parent="1" edge="1">
          <mxGeometry width="50" height="50" relative="1" as="geometry">
            <mxPoint x="440" y="390" as="sourcePoint" />
            <mxPoint x="290" y="390" as="targetPoint" />
          </mxGeometry>
        </mxCell>
        <mxCell id="Z0DfydjJGIAEFnmEN4nz-13" value="openInventory()" style="text;html=1;align=center;verticalAlign=middle;resizable=0;points=[];autosize=1;strokeColor=none;fillColor=none;" parent="1" vertex="1">
          <mxGeometry x="165" y="278" width="110" height="30" as="geometry" />
        </mxCell>
        <mxCell id="Z0DfydjJGIAEFnmEN4nz-18" value="" style="endArrow=none;dashed=1;html=1;rounded=0;entryX=0.5;entryY=1;entryDx=0;entryDy=0;" parent="1" edge="1">
          <mxGeometry width="50" height="50" relative="1" as="geometry">
            <mxPoint x="289.5" y="730" as="sourcePoint" />
            <mxPoint x="286" y="370" as="targetPoint" />
          </mxGeometry>
        </mxCell>
        <mxCell id="Z0DfydjJGIAEFnmEN4nz-20" value="" style="endArrow=classic;html=1;rounded=0;" parent="1" edge="1" target="Z0DfydjJGIAEFnmEN4nz-43">
          <mxGeometry width="50" height="50" relative="1" as="geometry">
            <mxPoint x="135" y="480" as="sourcePoint" />
            <mxPoint x="435" y="480" as="targetPoint" />
          </mxGeometry>
        </mxCell>
        <mxCell id="Z0DfydjJGIAEFnmEN4nz-22" value="" style="endArrow=classic;html=1;rounded=0;" parent="1" edge="1" source="Z0DfydjJGIAEFnmEN4nz-23">
          <mxGeometry width="50" height="50" relative="1" as="geometry">
            <mxPoint x="295" y="510" as="sourcePoint" />
            <mxPoint x="445" y="510" as="targetPoint" />
          </mxGeometry>
        </mxCell>
        <mxCell id="Z0DfydjJGIAEFnmEN4nz-33" value="" style="endArrow=classic;html=1;rounded=0;" parent="1" edge="1">
          <mxGeometry width="50" height="50" relative="1" as="geometry">
            <mxPoint x="440" y="550" as="sourcePoint" />
            <mxPoint x="140" y="550" as="targetPoint" />
          </mxGeometry>
        </mxCell>
        <mxCell id="Z0DfydjJGIAEFnmEN4nz-42" value="" style="endArrow=none;dashed=1;html=1;rounded=0;entryX=0.5;entryY=1;entryDx=0;entryDy=0;" parent="1" target="Z0DfydjJGIAEFnmEN4nz-41" edge="1">
          <mxGeometry width="50" height="50" relative="1" as="geometry">
            <mxPoint x="140" y="730" as="sourcePoint" />
            <mxPoint x="140" y="250" as="targetPoint" />
          </mxGeometry>
        </mxCell>
        <mxCell id="Z0DfydjJGIAEFnmEN4nz-41" value="" style="html=1;points=[[0,0,0,0,5],[0,1,0,0,-5],[1,0,0,0,5],[1,1,0,0,-5]];perimeter=orthogonalPerimeter;outlineConnect=0;targetShapes=umlLifeline;portConstraint=eastwest;newEdgeStyle={&quot;curved&quot;:0,&quot;rounded&quot;:0};" parent="1" vertex="1">
          <mxGeometry x="135" y="280" width="10" height="340" as="geometry" />
        </mxCell>
        <mxCell id="Z0DfydjJGIAEFnmEN4nz-43" value="" style="html=1;points=[[0,0,0,0,5],[0,1,0,0,-5],[1,0,0,0,5],[1,1,0,0,-5]];perimeter=orthogonalPerimeter;outlineConnect=0;targetShapes=umlLifeline;portConstraint=eastwest;newEdgeStyle={&quot;curved&quot;:0,&quot;rounded&quot;:0};" parent="1" vertex="1">
          <mxGeometry x="285" y="280" width="10" height="330" as="geometry" />
        </mxCell>
        <mxCell id="Z0DfydjJGIAEFnmEN4nz-46" value="" style="endArrow=none;dashed=1;html=1;rounded=0;entryX=0.5;entryY=1;entryDx=0;entryDy=0;" parent="1" target="Z0DfydjJGIAEFnmEN4nz-45" edge="1">
          <mxGeometry width="50" height="50" relative="1" as="geometry">
            <mxPoint x="440" y="720" as="sourcePoint" />
            <mxPoint x="439.5" y="240" as="targetPoint" />
          </mxGeometry>
        </mxCell>
        <mxCell id="Z0DfydjJGIAEFnmEN4nz-45" value="" style="html=1;points=[[0,0,0,0,5],[0,1,0,0,-5],[1,0,0,0,5],[1,1,0,0,-5]];perimeter=orthogonalPerimeter;outlineConnect=0;targetShapes=umlLifeline;portConstraint=eastwest;newEdgeStyle={&quot;curved&quot;:0,&quot;rounded&quot;:0};" parent="1" vertex="1">
          <mxGeometry x="435" y="280" width="10" height="300" as="geometry" />
        </mxCell>
        <mxCell id="Z0DfydjJGIAEFnmEN4nz-21" value="useItem()" style="text;html=1;align=center;verticalAlign=middle;resizable=0;points=[];autosize=1;strokeColor=none;fillColor=none;" parent="1" vertex="1">
          <mxGeometry x="175" y="460" width="70" height="30" as="geometry" />
        </mxCell>
        <mxCell id="Z0DfydjJGIAEFnmEN4nz-19" value="checkItem()" style="text;html=1;align=center;verticalAlign=middle;resizable=0;points=[];autosize=1;strokeColor=none;fillColor=none;" parent="1" vertex="1">
          <mxGeometry x="325" y="370" width="90" height="30" as="geometry" />
        </mxCell>
        <mxCell id="Z0DfydjJGIAEFnmEN4nz-34" value="visualizeItemStatus()" style="text;html=1;align=center;verticalAlign=middle;resizable=0;points=[];autosize=1;strokeColor=none;fillColor=none;" parent="1" vertex="1">
          <mxGeometry x="155" y="530" width="130" height="30" as="geometry" />
        </mxCell>
        <mxCell id="yYUUjU89ej62PLe64v1S-1" value="loadItems()" style="text;html=1;align=center;verticalAlign=middle;resizable=0;points=[];autosize=1;strokeColor=none;fillColor=none;" vertex="1" parent="1">
          <mxGeometry x="310" y="308" width="80" height="30" as="geometry" />
        </mxCell>
        <mxCell id="yYUUjU89ej62PLe64v1S-3" value="" style="endArrow=classic;html=1;rounded=0;" edge="1" parent="1">
          <mxGeometry width="50" height="50" relative="1" as="geometry">
            <mxPoint x="285" y="438" as="sourcePoint" />
            <mxPoint x="145" y="438" as="targetPoint" />
          </mxGeometry>
        </mxCell>
        <mxCell id="yYUUjU89ej62PLe64v1S-4" value="visualizeItem()" style="text;html=1;align=center;verticalAlign=middle;resizable=0;points=[];autosize=1;strokeColor=none;fillColor=none;" vertex="1" parent="1">
          <mxGeometry x="160" y="408" width="100" height="30" as="geometry" />
        </mxCell>
        <mxCell id="yYUUjU89ej62PLe64v1S-6" value="" style="endArrow=classic;html=1;rounded=0;" edge="1" parent="1" target="Z0DfydjJGIAEFnmEN4nz-45">
          <mxGeometry width="50" height="50" relative="1" as="geometry">
            <mxPoint x="295" y="510" as="sourcePoint" />
            <mxPoint x="445" y="510" as="targetPoint" />
          </mxGeometry>
        </mxCell>
        <mxCell id="Z0DfydjJGIAEFnmEN4nz-23" value="updateItemStatus()" style="text;html=1;align=center;verticalAlign=middle;resizable=0;points=[];autosize=1;strokeColor=none;fillColor=none;" parent="1" vertex="1">
          <mxGeometry x="305" y="490" width="130" height="30" as="geometry" />
        </mxCell>
        <mxCell id="yYUUjU89ej62PLe64v1S-9" value="" style="endArrow=classic;html=1;rounded=0;" edge="1" parent="1">
          <mxGeometry width="50" height="50" relative="1" as="geometry">
            <mxPoint x="150" y="600" as="sourcePoint" />
            <mxPoint x="285" y="600" as="targetPoint" />
          </mxGeometry>
        </mxCell>
        <mxCell id="yYUUjU89ej62PLe64v1S-10" value="closeInventory()" style="text;html=1;align=center;verticalAlign=middle;resizable=0;points=[];autosize=1;strokeColor=none;fillColor=none;" vertex="1" parent="1">
          <mxGeometry x="160" y="578" width="110" height="30" as="geometry" />
        </mxCell>
      </root>
    </mxGraphModel>
  </diagram>
</mxfile>
